<?xml version="1.0" encoding="UTF-8" standalone="no"?>
<!-- Created with Inkscape (http://www.inkscape.org/) -->

<svg
   xmlns:dc="http://purl.org/dc/elements/1.1/"
   xmlns:cc="http://creativecommons.org/ns#"
   xmlns:rdf="http://www.w3.org/1999/02/22-rdf-syntax-ns#"
   xmlns:svg="http://www.w3.org/2000/svg"
   xmlns="http://www.w3.org/2000/svg"
   xmlns:sodipodi="http://sodipodi.sourceforge.net/DTD/sodipodi-0.dtd"
   xmlns:inkscape="http://www.inkscape.org/namespaces/inkscape"
   width="793.70081"
   height="1122.5197"
   viewBox="0 0 210 297"
   version="1.1"
   id="svg957"
   inkscape:version="0.92.3 (2405546, 2018-03-11)"
   sodipodi:docname="KAT.svg">
  <defs
     id="defs951" />
  <sodipodi:namedview
     id="base"
     pagecolor="#ffffff"
     bordercolor="#666666"
     borderopacity="1.0"
     inkscape:pageopacity="0.0"
     inkscape:pageshadow="2"
     inkscape:zoom="0.35355339"
     inkscape:cx="91.163664"
     inkscape:cy="-291.71684"
     inkscape:document-units="px"
     inkscape:current-layer="layer1"
     showgrid="false"
     units="px"
     showborder="false"
     inkscape:snap-global="false"
     inkscape:snap-center="true"
     showguides="true"
     inkscape:guide-bbox="true"
     inkscape:window-width="1600"
     inkscape:window-height="825"
     inkscape:window-x="-9"
     inkscape:window-y="-9"
     inkscape:window-maximized="1" />
  <metadata
     id="metadata954">
    <rdf:RDF>
      <cc:Work
         rdf:about="">
        <dc:format>image/svg+xml</dc:format>
        <dc:type
           rdf:resource="http://purl.org/dc/dcmitype/StillImage" />
        <dc:title></dc:title>
      </cc:Work>
    </rdf:RDF>
  </metadata>
  <g
     inkscape:label="Layer 1"
     inkscape:groupmode="layer"
     id="layer1">
    <g
       aria-label="LOGO DESIGN"
       style="font-style:normal;font-variant:normal;font-weight:600;font-stretch:semi-condensed;font-size:45.86740494px;line-height:0;font-family:'Lucida Sans Typewriter';-inkscape-font-specification:'Lucida Sans Typewriter, Semi-Bold Semi-Condensed';font-variant-ligatures:normal;font-variant-caps:normal;font-variant-numeric:normal;font-feature-settings:normal;text-align:start;letter-spacing:1.58749998px;word-spacing:-3.85286236px;writing-mode:lr-tb;text-anchor:start;fill:#ebb315;fill-opacity:1;stroke:#ff00ff;stroke-width:0.86001384"
       id="text1541">
      <path
         inkscape:connector-curvature="0"
         d="m -10.219828,376.24091 v -33.14637 h 6.6292738 v 28.73432 H 11.885216 v 4.41205 z"
         style="font-style:normal;font-variant:normal;font-weight:600;font-stretch:semi-condensed;font-size:45.86740494px;font-family:'Lucida Sans Typewriter';-inkscape-font-specification:'Lucida Sans Typewriter, Semi-Bold Semi-Condensed';font-variant-ligatures:normal;font-variant-caps:normal;font-variant-numeric:normal;font-feature-settings:normal;text-align:start;letter-spacing:1.58749998px;writing-mode:lr-tb;text-anchor:start;fill:#ebb315;fill-opacity:1;stroke-width:0.86001384;stroke:#ff00ff"
         id="path1755" />
      <path
         inkscape:connector-curvature="0"
         d="m 28.030242,377.06956 q -6.606878,0 -9.94391,-4.7032 -3.314637,-4.72559 -3.314637,-12.69864 0,-7.97304 3.314637,-12.67624 3.314636,-4.7256 9.94391,-4.7256 6.629273,0 9.94391,4.7256 3.314636,4.7032 3.314636,12.67624 0,7.97305 -3.337032,12.69864 -3.314637,4.7032 -9.921514,4.7032 z m 0,-4.41205 q 1.769299,0 3.135467,-1.23179 1.366168,-1.25418 2.150034,-3.85214 0.806263,-2.59796 0.806263,-7.88346 0,-5.3079 -0.76147,-7.86107 -0.739075,-2.55316 -2.127639,-3.85214 -1.388564,-1.29898 -3.202655,-1.29898 -1.791696,0 -3.18026,1.29898 -1.366168,1.27658 -2.127638,3.85214 -0.761471,2.57557 -0.761471,7.86107 0,5.3079 0.761471,7.90585 0.783867,2.57557 2.150034,3.82975 1.388564,1.23179 3.157864,1.23179 z"
         style="font-style:normal;font-variant:normal;font-weight:600;font-stretch:semi-condensed;font-size:45.86740494px;font-family:'Lucida Sans Typewriter';-inkscape-font-specification:'Lucida Sans Typewriter, Semi-Bold Semi-Condensed';font-variant-ligatures:normal;font-variant-caps:normal;font-variant-numeric:normal;font-feature-settings:normal;text-align:start;letter-spacing:1.58749998px;writing-mode:lr-tb;text-anchor:start;fill:#ebb315;fill-opacity:1;stroke-width:0.86001384;stroke:#ff00ff"
         id="path1757" />
      <path
         inkscape:connector-curvature="0"
         d="m 69.505363,375.54662 q -1.702111,0.53751 -3.314637,0.85106 -1.59013,0.31355 -3.202656,0.49272 -1.612525,0.17916 -2.978693,0.17916 -4.479239,0 -8.152215,-2.10524 -3.672976,-2.10524 -5.599048,-5.91259 -1.926073,-3.82975 -1.926073,-9.24963 0,-5.21831 1.769299,-9.07046 1.791696,-3.87454 5.218313,-6.15895 3.449014,-2.30681 9.764741,-2.30681 4.367258,0 8.420969,1.11981 v 5.24071 q -1.186998,-0.6047 -2.642751,-1.03023 -1.433356,-0.42552 -2.911505,-0.67188 -1.455753,-0.26876 -2.642751,-0.26876 -2.754732,0 -5.083936,1.50055 -2.329204,1.47815 -3.560995,4.54643 -1.231791,3.04588 -1.231791,6.94282 0,5.73342 2.777128,9.22723 2.799525,3.47141 7.637103,3.47141 0.671885,0 1.298979,-0.11198 v -11.73561 h 6.360519 z"
         style="font-style:normal;font-variant:normal;font-weight:600;font-stretch:semi-condensed;font-size:45.86740494px;font-family:'Lucida Sans Typewriter';-inkscape-font-specification:'Lucida Sans Typewriter, Semi-Bold Semi-Condensed';font-variant-ligatures:normal;font-variant-caps:normal;font-variant-numeric:normal;font-feature-settings:normal;text-align:start;letter-spacing:1.58749998px;writing-mode:lr-tb;text-anchor:start;fill:#ebb315;fill-opacity:1;stroke-width:0.86001384;stroke:#ff00ff"
         id="path1759" />
      <path
         inkscape:connector-curvature="0"
         d="m 86.568633,377.06956 q -6.606877,0 -9.94391,-4.7032 -3.314637,-4.72559 -3.314637,-12.69864 0,-7.97304 3.314637,-12.67624 3.314636,-4.7256 9.94391,-4.7256 6.629273,0 9.94391,4.7256 3.314637,4.7032 3.314637,12.67624 0,7.97305 -3.337033,12.69864 -3.314637,4.7032 -9.921514,4.7032 z m 0,-4.41205 q 1.769299,0 3.135467,-1.23179 1.366168,-1.25418 2.150035,-3.85214 0.806263,-2.59796 0.806263,-7.88346 0,-5.3079 -0.761471,-7.86107 -0.739074,-2.55316 -2.127639,-3.85214 -1.388564,-1.29898 -3.202655,-1.29898 -1.791696,0 -3.18026,1.29898 -1.366168,1.27658 -2.127638,3.85214 -0.761471,2.57557 -0.761471,7.86107 0,5.3079 0.761471,7.90585 0.783867,2.57557 2.150034,3.82975 1.388564,1.23179 3.157864,1.23179 z"
         style="font-style:normal;font-variant:normal;font-weight:600;font-stretch:semi-condensed;font-size:45.86740494px;font-family:'Lucida Sans Typewriter';-inkscape-font-specification:'Lucida Sans Typewriter, Semi-Bold Semi-Condensed';font-variant-ligatures:normal;font-variant-caps:normal;font-variant-numeric:normal;font-feature-settings:normal;text-align:start;letter-spacing:1.58749998px;writing-mode:lr-tb;text-anchor:start;fill:#ebb315;fill-opacity:1;stroke-width:0.86001384;stroke:#ff00ff"
         id="path1761" />
      <path
         inkscape:connector-curvature="0"
         d="m 129.36179,376.24091 v -33.14637 h 11.84758 q 7.0772,0 9.9887,4.03131 2.91151,4.03132 2.91151,11.71321 0,5.3079 -1.43336,9.20484 -1.41096,3.87454 -4.30007,6.04697 -2.8891,2.15004 -8.68972,2.15004 z m 6.62927,-4.41205 h 2.15003 q 4.56883,0 6.62928,-2.73234 2.08284,-2.73234 2.08284,-9.38401 0,-3.62818 -0.73907,-6.13655 -0.71668,-2.50838 -2.62036,-4.27768 -1.88128,-1.79169 -5.95738,-1.79169 h -1.54534 z"
         style="font-style:normal;font-variant:normal;font-weight:600;font-stretch:semi-condensed;font-size:45.86740494px;font-family:'Lucida Sans Typewriter';-inkscape-font-specification:'Lucida Sans Typewriter, Semi-Bold Semi-Condensed';font-variant-ligatures:normal;font-variant-caps:normal;font-variant-numeric:normal;font-feature-settings:normal;text-align:start;letter-spacing:1.58749998px;writing-mode:lr-tb;text-anchor:start;fill:#ebb315;fill-opacity:1;stroke-width:0.86001384;stroke:#ff00ff"
         id="path1763" />
      <path
         inkscape:connector-curvature="0"
         d="m 160.46747,376.24091 v -33.14637 h 20.71648 v 4.41205 h -14.08721 v 9.384 h 11.89238 v 4.1433 h -11.89238 v 10.79497 h 15.27421 v 4.41205 z"
         style="font-style:normal;font-variant:normal;font-weight:600;font-stretch:semi-condensed;font-size:45.86740494px;font-family:'Lucida Sans Typewriter';-inkscape-font-specification:'Lucida Sans Typewriter, Semi-Bold Semi-Condensed';font-variant-ligatures:normal;font-variant-caps:normal;font-variant-numeric:normal;font-feature-settings:normal;text-align:start;letter-spacing:1.58749998px;writing-mode:lr-tb;text-anchor:start;fill:#ebb315;fill-opacity:1;stroke-width:0.86001384;stroke:#ff00ff"
         id="path1765" />
      <path
         inkscape:connector-curvature="0"
         d="m 188.30331,375.97215 v -5.55425 q 5.24071,2.12763 9.65276,2.12763 3.09067,0 5.01675,-1.36616 1.92607,-1.36617 1.92607,-3.38183 0,-1.14221 -0.6271,-2.10524 -0.64949,-0.94064 -3.26984,-2.374 l -6.18135,-3.35943 q -3.00109,-1.63492 -4.21048,-2.86671 -1.2094,-1.23179 -1.83649,-2.70994 -0.6271,-1.47815 -0.6271,-3.15786 0,-3.71777 2.91151,-6.33813 2.9339,-2.62035 9.38401,-2.62035 4.85997,0 9.24962,1.09741 v 5.24071 q -4.74799,-1.92607 -9.09285,-1.92607 -3.00109,0 -4.63601,1.00783 -1.61253,0.98543 -1.61253,2.53077 0,0.82866 0.42553,1.65732 0.42553,0.82866 2.62035,1.99326 l 6.85324,3.67297 q 4.36726,2.32921 6.00218,4.52404 1.61252,2.19482 1.61252,5.15112 0,2.70994 -1.45575,5.01675 -1.45575,2.28441 -4.36726,3.56099 -2.88911,1.27658 -7.86106,1.27658 -4.47924,0 -9.87672,-1.09741 z"
         style="font-style:normal;font-variant:normal;font-weight:600;font-stretch:semi-condensed;font-size:45.86740494px;font-family:'Lucida Sans Typewriter';-inkscape-font-specification:'Lucida Sans Typewriter, Semi-Bold Semi-Condensed';font-variant-ligatures:normal;font-variant-caps:normal;font-variant-numeric:normal;font-feature-settings:normal;text-align:start;letter-spacing:1.58749998px;writing-mode:lr-tb;text-anchor:start;fill:#ebb315;fill-opacity:1;stroke-width:0.86001384;stroke:#ff00ff"
         id="path1767" />
      <path
         inkscape:connector-curvature="0"
         d="m 217.99803,376.24091 v -4.41205 h 7.72669 v -24.32227 h -7.72669 v -4.41205 h 22.10504 v 4.41205 h -7.72668 v 24.32227 h 7.72668 v 4.41205 z"
         style="font-style:normal;font-variant:normal;font-weight:600;font-stretch:semi-condensed;font-size:45.86740494px;font-family:'Lucida Sans Typewriter';-inkscape-font-specification:'Lucida Sans Typewriter, Semi-Bold Semi-Condensed';font-variant-ligatures:normal;font-variant-caps:normal;font-variant-numeric:normal;font-feature-settings:normal;text-align:start;letter-spacing:1.58749998px;writing-mode:lr-tb;text-anchor:start;fill:#ebb315;fill-opacity:1;stroke-width:0.86001384;stroke:#ff00ff"
         id="path1769" />
      <path
         inkscape:connector-curvature="0"
         d="m 270.53689,375.54662 q -1.70211,0.53751 -3.31464,0.85106 -1.59013,0.31355 -3.20265,0.49272 -1.61253,0.17916 -2.9787,0.17916 -4.47924,0 -8.15221,-2.10524 -3.67298,-2.10524 -5.59905,-5.91259 -1.92607,-3.82975 -1.92607,-9.24963 0,-5.21831 1.76929,-9.07046 1.7917,-3.87454 5.21832,-6.15895 3.44901,-2.30681 9.76474,-2.30681 4.36726,0 8.42097,1.11981 v 5.24071 q -1.187,-0.6047 -2.64275,-1.03023 -1.43336,-0.42552 -2.91151,-0.67188 -1.45575,-0.26876 -2.64275,-0.26876 -2.75473,0 -5.08394,1.50055 -2.3292,1.47815 -3.56099,4.54643 -1.23179,3.04588 -1.23179,6.94282 0,5.73342 2.77713,9.22723 2.79952,3.47141 7.6371,3.47141 0.67189,0 1.29898,-0.11198 v -11.73561 h 6.36052 z"
         style="font-style:normal;font-variant:normal;font-weight:600;font-stretch:semi-condensed;font-size:45.86740494px;font-family:'Lucida Sans Typewriter';-inkscape-font-specification:'Lucida Sans Typewriter, Semi-Bold Semi-Condensed';font-variant-ligatures:normal;font-variant-caps:normal;font-variant-numeric:normal;font-feature-settings:normal;text-align:start;letter-spacing:1.58749998px;writing-mode:lr-tb;text-anchor:start;fill:#ebb315;fill-opacity:1;stroke-width:0.86001384;stroke:#ff00ff"
         id="path1771" />
      <path
         inkscape:connector-curvature="0"
         d="m 276.26768,376.24091 v -33.14637 h 6.13656 l 12.04915,21.38836 h 0.0448 v -21.38836 h 4.43444 v 33.14637 h -5.80061 l -12.3851,-22.10505 h -0.0672 v 22.10505 z"
         style="font-style:normal;font-variant:normal;font-weight:600;font-stretch:semi-condensed;font-size:45.86740494px;font-family:'Lucida Sans Typewriter';-inkscape-font-specification:'Lucida Sans Typewriter, Semi-Bold Semi-Condensed';font-variant-ligatures:normal;font-variant-caps:normal;font-variant-numeric:normal;font-feature-settings:normal;text-align:start;letter-spacing:1.58749998px;writing-mode:lr-tb;text-anchor:start;fill:#ebb315;fill-opacity:1;stroke-width:0.86001384;stroke:#ff00ff"
         id="path1773" />
    </g>
    <g
       id="g1577"
       transform="translate(-1.4967094,-2.5562983e-5)"
       style="stroke:#ff00ff">
      <path
         sodipodi:nodetypes="ccccc"
         inkscape:connector-curvature="0"
         transform="scale(0.26458333)"
         id="path1555"
         d="M 94.451062,1161.2316 V 926.01001 L 551.25613,662.29275 1008.0612,926.00996 v 235.22154"
         style="opacity:1;fill:none;fill-opacity:1;stroke:#ff00ff;stroke-width:10;stroke-linecap:square;stroke-linejoin:miter;stroke-miterlimit:4;stroke-dasharray:none;stroke-dashoffset:0;stroke-opacity:1;paint-order:stroke fill markers" />
      <path
         sodipodi:nodetypes="sssss"
         inkscape:connector-curvature="0"
         id="path1525"
         d="m 149.59497,184.74679 c 0,2.06652 -1.67525,3.74177 -3.74177,3.74177 -2.06653,1e-5 -3.74178,-1.67524 -3.74178,-3.74177 0,-2.06653 1.67525,-3.74178 3.74178,-3.74178 2.06653,0 3.74177,1.67526 3.74177,3.74178 z"
         style="opacity:1;fill:#ebb315;fill-opacity:1;stroke:#ff00ff;stroke-width:1.85208333;stroke-linecap:square;stroke-linejoin:miter;stroke-miterlimit:4;stroke-dasharray:none;stroke-dashoffset:0;stroke-opacity:1;paint-order:stroke fill markers" />
      <path
         sodipodi:nodetypes="sssss"
         inkscape:connector-curvature="0"
         style="opacity:1;fill:#ebb315;fill-opacity:1;stroke:#ff00ff;stroke-width:1.85208333;stroke-linecap:square;stroke-linejoin:miter;stroke-miterlimit:4;stroke-dasharray:none;stroke-dashoffset:0;stroke-opacity:1;paint-order:stroke fill markers"
         d="m 37.341768,249.85365 c -2e-6,2.06652 -1.675248,3.74177 -3.74177,3.74177 -2.066526,1e-5 -3.741778,-1.67524 -3.74178,-3.74177 -4e-6,-2.06653 1.67525,-3.74178 3.74178,-3.74178 2.066526,0 3.741774,1.67526 3.74177,3.74178 z"
         id="path1531" />
      <path
         sodipodi:nodetypes="sssss"
         id="path1535"
         d="m 262.06736,249.1053 c 0,2.06652 -1.67525,3.74177 -3.74177,3.74177 -2.06653,1e-5 -3.74178,-1.67524 -3.74178,-3.74177 0,-2.06653 1.67525,-3.74178 3.74178,-3.74178 2.06653,0 3.74177,1.67526 3.74177,3.74178 z"
         style="opacity:1;fill:#ebb315;fill-opacity:1;stroke:#ff00ff;stroke-width:1.85208333;stroke-linecap:square;stroke-linejoin:miter;stroke-miterlimit:4;stroke-dasharray:none;stroke-dashoffset:0;stroke-opacity:1;paint-order:stroke fill markers"
         inkscape:connector-curvature="0" />
      <path
         sodipodi:nodetypes="cccccccccccccc"
         style="fill:none;stroke:#ff00ff;stroke-width:1.85208333;stroke-linecap:butt;stroke-linejoin:miter;stroke-miterlimit:4;stroke-dasharray:none;stroke-opacity:1"
         d="m 286.46774,324.2198 -27.44635,0.23466 v -66.78104 c -4.54647,9e-5 -8.23214,-3.68559 -8.23205,-8.23206 0.004,-1.44407 0.38688,-2.86179 1.11156,-4.11086 l -98.92781,-57.11848 v 0 c -1.46767,2.54598 -4.18127,4.11647 -7.11998,4.12067 -2.93932,-0.003 -5.65404,-1.57294 -7.12256,-4.11912 l -98.923163,57.11537 c 0.724218,1.24973 1.106858,2.66801 1.109494,4.11242 8.7e-5,4.54647 -3.68558,8.23214 -8.232056,8.23206 v 66.78104 l -27.4463423,0.23466"
         id="path1563"
         inkscape:connector-curvature="0" />
    </g>
    <path
       style="color:#000000;font-style:normal;font-variant:normal;font-weight:normal;font-stretch:normal;font-size:medium;line-height:normal;font-family:sans-serif;font-variant-ligatures:normal;font-variant-position:normal;font-variant-caps:normal;font-variant-numeric:normal;font-variant-alternates:normal;font-feature-settings:normal;text-indent:0;text-align:start;text-decoration:none;text-decoration-line:none;text-decoration-style:solid;text-decoration-color:#000000;letter-spacing:normal;word-spacing:normal;text-transform:none;writing-mode:lr-tb;direction:ltr;text-orientation:mixed;dominant-baseline:auto;baseline-shift:baseline;text-anchor:start;white-space:normal;shape-padding:0;clip-rule:nonzero;display:inline;overflow:visible;visibility:visible;opacity:1;isolation:auto;mix-blend-mode:normal;color-interpolation:sRGB;color-interpolation-filters:linearRGB;solid-color:#000000;solid-opacity:1;vector-effect:none;fill:#ebb315;fill-opacity:1;fill-rule:nonzero;stroke:#ff00ff;stroke-width:2.64583325;stroke-linecap:square;stroke-linejoin:miter;stroke-miterlimit:4;stroke-dasharray:none;stroke-dashoffset:0;stroke-opacity:1;paint-order:stroke fill markers;color-rendering:auto;image-rendering:auto;shape-rendering:auto;text-rendering:auto;enable-background:accumulate"
       d="m 22.169922,410.76953 v 1.32422 29.32227 l 122.187498,70.53906 122.18555,-70.53906 v -29.32227 -1.32422 h -2.64649 v 1.32422 27.79492 L 144.35742,508.90039 24.816406,439.88867 v -27.79492 -1.32422 z"
       id="path1579"
       inkscape:connector-curvature="0" />
    <path
       sodipodi:nodetypes="sssss"
       inkscape:connector-curvature="0"
       id="path1581"
       d="m 148.09826,500.91272 c 0,-2.06652 -1.67525,-3.74177 -3.74177,-3.74177 -2.06653,-1e-5 -3.74178,1.67524 -3.74178,3.74177 0,2.06653 1.67525,3.74178 3.74178,3.74178 2.06653,0 3.74177,-1.67526 3.74177,-3.74178 z"
       style="opacity:1;fill:#ebb315;fill-opacity:1;stroke:#ff00ff;stroke-width:1.85208333;stroke-linecap:square;stroke-linejoin:miter;stroke-miterlimit:4;stroke-dasharray:none;stroke-dashoffset:0;stroke-opacity:1;paint-order:stroke fill markers" />
    <path
       sodipodi:nodetypes="sssss"
       inkscape:connector-curvature="0"
       style="opacity:1;fill:#ebb315;fill-opacity:1;stroke:#ff00ff;stroke-width:1.85208333;stroke-linecap:square;stroke-linejoin:miter;stroke-miterlimit:4;stroke-dasharray:none;stroke-dashoffset:0;stroke-opacity:1;paint-order:stroke fill markers"
       d="m 35.845059,435.80586 c -2e-6,-2.06652 -1.675248,-3.74177 -3.74177,-3.74177 -2.066526,-1e-5 -3.741778,1.67524 -3.74178,3.74177 -4e-6,2.06653 1.67525,3.74178 3.74178,3.74178 2.066526,0 3.741774,-1.67526 3.74177,-3.74178 z"
       id="path1583" />
    <path
       sodipodi:nodetypes="sssss"
       id="path1585"
       d="m 260.57065,436.55421 c 0,-2.06652 -1.67525,-3.74177 -3.74177,-3.74177 -2.06653,-10e-6 -3.74178,1.67524 -3.74178,3.74177 0,2.06653 1.67525,3.74178 3.74178,3.74178 2.06653,0 3.74177,-1.67526 3.74177,-3.74178 z"
       style="opacity:1;fill:#ebb315;fill-opacity:1;stroke:#ff00ff;stroke-width:1.85208333;stroke-linecap:square;stroke-linejoin:miter;stroke-miterlimit:4;stroke-dasharray:none;stroke-dashoffset:0;stroke-opacity:1;paint-order:stroke fill markers"
       inkscape:connector-curvature="0" />
    <path
       style="color:#000000;font-style:normal;font-variant:normal;font-weight:normal;font-stretch:normal;font-size:medium;line-height:normal;font-family:sans-serif;font-variant-ligatures:normal;font-variant-position:normal;font-variant-caps:normal;font-variant-numeric:normal;font-variant-alternates:normal;font-feature-settings:normal;text-indent:0;text-align:start;text-decoration:none;text-decoration-line:none;text-decoration-style:solid;text-decoration-color:#000000;letter-spacing:normal;word-spacing:normal;text-transform:none;writing-mode:lr-tb;direction:ltr;text-orientation:mixed;dominant-baseline:auto;baseline-shift:baseline;text-anchor:start;white-space:normal;shape-padding:0;clip-rule:nonzero;display:inline;overflow:visible;visibility:visible;opacity:1;isolation:auto;mix-blend-mode:normal;color-interpolation:sRGB;color-interpolation-filters:linearRGB;solid-color:#000000;solid-opacity:1;vector-effect:none;fill:#ebb315;fill-opacity:1;fill-rule:nonzero;stroke:#ff00ff;stroke-width:1.85208333;stroke-linecap:butt;stroke-linejoin:miter;stroke-miterlimit:4;stroke-dasharray:none;stroke-dashoffset:0;stroke-opacity:1;color-rendering:auto;image-rendering:auto;shape-rendering:auto;text-rendering:auto;enable-background:accumulate"
       d="m 3.75,393.7207 -0.015625,1.85157 26.527344,0.22656 v 33.11328 H 31.1875 c 4.045994,-7e-5 7.306718,3.26065 7.306641,7.30664 -0.0027,1.28131 -0.341924,2.53981 -0.984375,3.64844 l -0.464844,0.80078 100.527348,58.04297 0.46289,-0.80274 c 1.30373,-2.26046 3.71091,-3.65288 6.32031,-3.65625 2.6096,0.004 5.01505,1.39735 6.31836,3.65821 l 0.46289,0.80273 100.5332,-58.04687 -0.46484,-0.80079 c -0.6431,-1.10844 -0.98278,-2.36832 -0.98633,-3.65039 0.002,-4.04413 3.26199,-7.30281 7.30664,-7.30273 h 0.92578 v -33.09766 l 26.51172,0.22657 0.0156,-1.85157 -28.37891,-0.24218 v 33.30078 c -4.59259,0.48712 -8.23252,4.25182 -8.23242,8.9707 v 0.002 c 0.004,1.29179 0.34946,2.53709 0.87695,3.70899 l -97.5332,56.31445 c -1.70731,-2.36178 -4.40228,-3.83953 -7.35352,-3.84375 h -0.002 c -2.95164,0.003 -5.64724,1.48025 -7.35547,3.8418 l -97.529217,-56.3106 c 0.527193,-1.1725 0.872641,-2.41839 0.875,-3.71094 v -0.002 c 9e-5,-4.71888 -3.639826,-8.48357 -8.232422,-8.9707 v -33.28516 z"
       id="path1587"
       inkscape:connector-curvature="0" />
    <path
       inkscape:connector-curvature="0"
       style="opacity:1;fill:#ebb315;fill-opacity:1;stroke:#ff00ff;stroke-width:0.59288144;stroke-linecap:square;stroke-linejoin:miter;stroke-miterlimit:4;stroke-dasharray:none;stroke-dashoffset:0;stroke-opacity:1;paint-order:stroke fill markers"
       inkscape:transform-center-x="-1.2544498e-006"
       inkscape:transform-center-y="-1.5388267"
       d="m 144.3564,235.08362 3.55201,11.22585 11.77405,-0.0908 -9.57879,6.84714 3.72475,11.16972 -9.47202,-6.99409 -9.47203,6.99409 3.72476,-11.16972 -9.57879,-6.84714 11.77405,0.0908 z"
       id="path1613" />
    <g
       aria-label="EST."
       style="font-style:normal;font-variant:normal;font-weight:600;font-stretch:semi-condensed;font-size:14.27847958px;line-height:0;font-family:'Lucida Sans Typewriter';-inkscape-font-specification:'Lucida Sans Typewriter, Semi-Bold Semi-Condensed';font-variant-ligatures:normal;font-variant-caps:normal;font-variant-numeric:normal;font-feature-settings:normal;text-align:start;letter-spacing:0.85403156px;word-spacing:-1.19939232px;writing-mode:lr-tb;text-anchor:start;fill:#ebb315;fill-opacity:1;stroke:#ff00ff;stroke-width:0.2677215"
       id="text1617">
      <path
         inkscape:connector-curvature="0"
         d="m 96.974291,257.06387 v -10.31843 h 6.449019 v 1.37347 h -4.385333 v 2.92123 h 3.702083 v 1.2898 h -3.702083 v 3.36047 h 4.754843 v 1.37346 z"
         style="font-style:normal;font-variant:normal;font-weight:600;font-stretch:semi-condensed;font-size:14.27847958px;font-family:'Lucida Sans Typewriter';-inkscape-font-specification:'Lucida Sans Typewriter, Semi-Bold Semi-Condensed';font-variant-ligatures:normal;font-variant-caps:normal;font-variant-numeric:normal;font-feature-settings:normal;text-align:start;writing-mode:lr-tb;text-anchor:start;fill:#ebb315;fill-opacity:1;stroke-width:0.2677215;stroke:#ff00ff"
         id="path1777" />
      <path
         inkscape:connector-curvature="0"
         d="m 105.99941,256.98021 v -1.72903 q 1.63142,0.66233 3.00489,0.66233 0.96212,0 1.56171,-0.42529 0.59958,-0.42529 0.59958,-1.05276 0,-0.35557 -0.19521,-0.65536 -0.20219,-0.29282 -1.0179,-0.73902 l -1.92425,-1.04579 q -0.93423,-0.50895 -1.31072,-0.8924 -0.37648,-0.38346 -0.57169,-0.8436 -0.19522,-0.46015 -0.19522,-0.98304 0,-1.15734 0.90635,-1.97306 0.91332,-0.81571 2.92123,-0.81571 1.51291,0 2.8794,0.34162 v 1.63143 q -1.47804,-0.59958 -2.83059,-0.59958 -0.93424,0 -1.44319,0.31373 -0.50198,0.30677 -0.50198,0.78783 0,0.25796 0.13247,0.51592 0.13246,0.25796 0.81571,0.6205 l 2.13341,1.1434 q 1.35952,0.72507 1.86847,1.40832 0.50198,0.68325 0.50198,1.60354 0,0.8436 -0.45318,1.56171 -0.45317,0.71114 -1.35952,1.10854 -0.89938,0.39739 -2.44714,0.39739 -1.39438,0 -3.07461,-0.34162 z"
         style="font-style:normal;font-variant:normal;font-weight:600;font-stretch:semi-condensed;font-size:14.27847958px;font-family:'Lucida Sans Typewriter';-inkscape-font-specification:'Lucida Sans Typewriter, Semi-Bold Semi-Condensed';font-variant-ligatures:normal;font-variant-caps:normal;font-variant-numeric:normal;font-feature-settings:normal;text-align:start;writing-mode:lr-tb;text-anchor:start;fill:#ebb315;fill-opacity:1;stroke-width:0.2677215;stroke:#ff00ff"
         id="path1779" />
      <path
         inkscape:connector-curvature="0"
         d="m 118.01547,257.06387 v -8.94496 h -3.09553 v -1.37347 h 8.25475 v 1.37347 h -3.09553 v 8.94496 z"
         style="font-style:normal;font-variant:normal;font-weight:600;font-stretch:semi-condensed;font-size:14.27847958px;font-family:'Lucida Sans Typewriter';-inkscape-font-specification:'Lucida Sans Typewriter, Semi-Bold Semi-Condensed';font-variant-ligatures:normal;font-variant-caps:normal;font-variant-numeric:normal;font-feature-settings:normal;text-align:start;writing-mode:lr-tb;text-anchor:start;fill:#ebb315;fill-opacity:1;stroke-width:0.2677215;stroke:#ff00ff"
         id="path1781" />
      <path
         inkscape:connector-curvature="0"
         d="m 127.31249,257.06387 v -2.40531 h 2.40531 v 2.40531 z"
         style="font-style:normal;font-variant:normal;font-weight:600;font-stretch:semi-condensed;font-size:14.27847958px;font-family:'Lucida Sans Typewriter';-inkscape-font-specification:'Lucida Sans Typewriter, Semi-Bold Semi-Condensed';font-variant-ligatures:normal;font-variant-caps:normal;font-variant-numeric:normal;font-feature-settings:normal;text-align:start;writing-mode:lr-tb;text-anchor:start;fill:#ebb315;fill-opacity:1;stroke-width:0.2677215;stroke:#ff00ff"
         id="path1783" />
    </g>
    <g
       aria-label="'03"
       style="font-style:normal;font-variant:normal;font-weight:600;font-stretch:semi-condensed;font-size:14.61729622px;line-height:0;font-family:'Lucida Sans Typewriter';-inkscape-font-specification:'Lucida Sans Typewriter, Semi-Bold Semi-Condensed';font-variant-ligatures:normal;font-variant-caps:normal;font-variant-numeric:normal;font-feature-settings:normal;text-align:start;letter-spacing:0.87429702px;word-spacing:-1.22785294px;writing-mode:lr-tb;text-anchor:start;fill:#ebb315;fill-opacity:1;stroke:#ff00ff;stroke-width:0.27407429"
       id="text1621">
      <path
         inkscape:connector-curvature="0"
         d="m 164.74994,249.27007 -0.52816,-4.57504 h 2.46239 l -0.52817,4.57504 z"
         style="font-style:normal;font-variant:normal;font-weight:600;font-stretch:semi-condensed;font-size:14.61729622px;font-family:'Lucida Sans Typewriter';-inkscape-font-specification:'Lucida Sans Typewriter, Semi-Bold Semi-Condensed';font-variant-ligatures:normal;font-variant-caps:normal;font-variant-numeric:normal;font-feature-settings:normal;text-align:start;writing-mode:lr-tb;text-anchor:start;fill:#ebb315;fill-opacity:1;stroke-width:0.27407429;stroke:#ff00ff"
         id="path1786" />
      <path
         inkscape:connector-curvature="0"
         d="m 175.15261,256.22899 q -1.81289,0 -2.84781,-1.45602 -1.02778,-1.45602 -1.02778,-4.08971 0,-2.63368 1.02778,-4.0897 1.03492,-1.45602 2.84781,-1.45602 1.81288,0 2.84066,1.45602 1.03492,1.45602 1.03492,4.0897 0,2.63369 -1.03492,4.08971 -1.02778,1.45602 -2.84066,1.45602 z m 0,-1.40606 q 0.80652,0 1.19193,-0.82793 0.39256,-0.82794 0.39256,-3.31174 0,-2.49093 -0.39256,-3.31173 -0.38541,-0.82793 -1.19193,-0.82793 -0.80653,0 -1.19908,0.82793 -0.38542,0.8208 -0.38542,3.31173 0,2.4838 0.38542,3.31174 0.39255,0.82793 1.19908,0.82793 z"
         style="font-style:normal;font-variant:normal;font-weight:600;font-stretch:semi-condensed;font-size:14.61729622px;font-family:'Lucida Sans Typewriter';-inkscape-font-specification:'Lucida Sans Typewriter, Semi-Bold Semi-Condensed';font-variant-ligatures:normal;font-variant-caps:normal;font-variant-numeric:normal;font-feature-settings:normal;text-align:start;writing-mode:lr-tb;text-anchor:start;fill:#ebb315;fill-opacity:1;stroke-width:0.27407429;stroke:#ff00ff"
         id="path1788" />
      <path
         inkscape:connector-curvature="0"
         d="m 181.88667,255.84357 v -1.52739 q 1.05633,0.50675 1.95563,0.50675 0.77084,0 1.32755,-0.49248 0.55671,-0.49248 0.55671,-1.2419 0,-0.54957 -0.3069,-1.00636 -0.29977,-0.4568 -0.935,-0.69233 -0.63522,-0.23553 -1.36323,-0.23553 h -0.27122 v -1.4132 h 0.1713 q 1.27758,0 1.91281,-0.52816 0.64236,-0.5353 0.64236,-1.32755 0,-0.60667 -0.36401,-0.97068 -0.35686,-0.37114 -1.17052,-0.37114 -0.86362,0 -2.03415,0.49962 v -1.50599 q 0.87076,-0.3069 1.38465,-0.34973 0.52103,-0.05 1.02778,-0.05 1.11343,0 1.79147,0.3426 0.68519,0.33545 1.07774,0.91358 0.39256,0.57098 0.39256,1.32754 0,0.79939 -0.48534,1.48457 -0.48534,0.67805 -1.82003,1.08488 1.49885,0.4211 2.06984,1.20621 0.57812,0.78511 0.57812,1.64873 0,0.83507 -0.48534,1.54167 -0.48534,0.69946 -1.41319,1.12056 -0.92786,0.42111 -2.05556,0.42111 -0.32832,0 -0.73515,-0.0428 -0.39969,-0.0428 -0.69232,-0.10706 -0.29263,-0.0571 -0.75656,-0.23553 z"
         style="font-style:normal;font-variant:normal;font-weight:600;font-stretch:semi-condensed;font-size:14.61729622px;font-family:'Lucida Sans Typewriter';-inkscape-font-specification:'Lucida Sans Typewriter, Semi-Bold Semi-Condensed';font-variant-ligatures:normal;font-variant-caps:normal;font-variant-numeric:normal;font-feature-settings:normal;text-align:start;writing-mode:lr-tb;text-anchor:start;fill:#ebb315;fill-opacity:1;stroke-width:0.27407429;stroke:#ff00ff"
         id="path1790" />
    </g>
    <g
       style="font-style:normal;font-variant:normal;font-weight:normal;font-stretch:normal;font-size:26.66666603px;line-height:0;font-family:sans-serif;-inkscape-font-specification:'sans-serif, Normal';font-variant-ligatures:normal;font-variant-caps:normal;font-variant-numeric:normal;font-feature-settings:normal;text-align:start;letter-spacing:3.19000006px;word-spacing:-4.48000002px;writing-mode:lr-tb;text-anchor:start;fill:#000000;fill-opacity:1;stroke:none"
       id="flowRoot1623" />
    <g
       aria-label="HELLEN'S DESIGNS"
       style="font-style:normal;font-variant:normal;font-weight:bold;font-stretch:normal;font-size:18.37955475px;line-height:0;font-family:'Berlin Sans FB Demi';-inkscape-font-specification:'Berlin Sans FB Demi, Bold';font-variant-ligatures:normal;font-variant-caps:normal;font-variant-numeric:normal;font-feature-settings:normal;text-align:start;letter-spacing:2.64583325px;word-spacing:-1.71542525px;writing-mode:lr-tb;text-anchor:start;fill:#ebb315;fill-opacity:1;stroke:#ff00ff;stroke-width:0.26458332"
       id="text1635">
      <path
         inkscape:connector-curvature="0"
         d="m 65.501839,440.33023 q -0.125321,0.14076 -0.215484,0.12056 -0.04471,-0.004 -0.217515,-0.13358 -0.444672,-0.32381 -1.188676,-0.98622 -1.052329,-0.93693 -1.2042,-1.14424 -0.145168,-0.20134 -0.01985,-0.3421 0.471446,-0.52952 1.461257,-1.54677 1.002481,-1.018 1.473927,-1.54751 0.232739,-0.26141 0.121084,-0.43291 -0.180151,-0.25653 -1.57432,-1.4978 -1.400872,-1.24724 -1.683209,-1.40249 -0.177298,-0.0978 -0.416005,0.17033 -0.465478,0.52282 -1.36292,1.59828 -0.891475,1.06876 -1.356953,1.59158 -0.17903,0.20108 -0.389843,0.0735 -0.250293,-0.15075 -1.29592,-1.08171 -0.904869,-0.80563 -1.117064,-1.06665 -0.164541,-0.20658 -0.0094,-0.38085 0.644509,-0.7239 2.012487,-2.12542 1.374682,-1.39555 2.025158,-2.12615 0.692249,-0.77751 2.009721,-2.39223 1.323439,-1.62141 2.015689,-2.39893 0.131288,-0.14746 0.272046,-0.0221 0.207785,0.185 0.605451,0.57511 0.404369,0.39607 0.612154,0.58106 0.214488,0.19097 0.661366,0.55279 0.45358,0.36779 0.668068,0.55876 0.113946,0.10145 0.0065,0.2221 -0.447575,0.5027 -1.416455,1.44247 -0.962912,0.93306 -1.410488,1.43577 -0.208868,0.23459 -0.117322,0.38819 0.12653,0.20879 1.668159,1.58135 1.434385,1.27708 1.710019,1.42636 0.196672,0.10301 0.40554,-0.13159 0.429672,-0.4826 1.248065,-1.49627 0.82436,-1.02037 1.26,-1.50967 0.184998,-0.20778 0.352566,-0.0586 0.19438,0.17306 0.571938,0.54526 0.384261,0.37817 0.585343,0.5572 0.194379,0.17306 0.607744,0.50505 0.420067,0.33795 0.621149,0.51698 0.194379,0.17306 0.05115,0.33393 -0.686282,0.77081 -2.137808,2.26617 -1.444824,1.50132 -2.137073,2.27884 -0.650476,0.7306 -1.8844,2.25147 -1.227222,1.52684 -1.87173,2.25074 z"
         id="path1644"
         style="stroke:#ff00ff" />
      <path
         inkscape:connector-curvature="0"
         d="m 77.894855,446.13375 q -0.221385,0.31608 -0.938423,1.07388 -0.775873,0.82617 -1.002346,0.9305 -0.18603,0.0779 -0.340395,-0.0302 -0.06616,-0.0463 -0.205075,-0.17651 -0.485117,-0.44935 -3.079914,-2.26676 -0.566004,-0.39643 -1.678162,-1.18635 -1.112158,-0.78993 -1.670811,-1.18121 -0.242573,-0.1699 -0.09327,-0.38307 0.57663,-0.82328 1.818099,-2.40805 1.253969,-1.58698 1.830599,-2.41026 0.586928,-0.83798 2.099898,-3.18583 0.389827,-0.6035 1.149631,-1.81345 l 0.06473,-0.10806 q 0.103714,-0.17936 0.302183,-0.0404 0.543952,0.38098 1.611261,1.17236 1.074661,0.79653 1.618613,1.17752 0.536601,0.37584 1.637748,1.10326 1.101147,0.72743 1.637748,1.10327 0.382236,0.26772 0.240251,0.59558 -0.08166,0.19481 -0.610528,1.10633 -0.516366,0.90931 -0.645078,1.09308 -0.108119,0.15437 -0.255133,0.0514 -0.0441,-0.0309 -0.149216,-0.11547 -1.84202,-1.53122 -3.400368,-2.62269 -0.389587,-0.27287 -0.606508,-0.15089 -0.09853,0.0625 -0.433187,0.54026 -0.350097,0.49985 -0.316349,0.76454 0.02714,0.22718 0.379974,0.47431 0.07351,0.0515 0.291826,0.19344 0.223467,0.13461 0.36313,0.23243 0.926189,0.64871 1.910468,1.26141 0.08601,0.0493 0.430031,0.24641 0.270518,0.14564 0.417532,0.24861 0.176417,0.12357 0.058,0.29263 0.108118,-0.15436 -0.920031,1.03199 -0.470685,0.54687 -0.882564,1.13492 -0.102969,0.14702 -0.31614,-0.002 0,0 -0.610078,-0.53687 -0.388099,-0.33757 -1.880291,-1.38271 l -0.779174,-0.54574 q -0.301379,-0.21109 -0.455804,-0.10011 -0.03309,0.0316 -0.326557,0.45059 -0.391285,0.55866 -0.431044,0.77186 -0.07068,0.36685 0.709208,0.98978 -0.0147,-0.0103 1.073202,0.75168 0.389587,0.27287 1.200396,0.74216 0.823309,0.46708 1.205545,0.7348 0.161716,0.11327 -0.02363,0.3779 z"
         id="path1646"
         style="stroke:#ff00ff" />
      <path
         inkscape:connector-curvature="0"
         d="m 86.693312,454.57545 q -0.674292,-0.3755 -1.738831,-1.00941 -1.393845,-0.8173 -1.734465,-1.01726 l -2.326877,-1.33688 q -0.357194,-0.18865 -0.993974,-0.59462 -0.205546,-0.16582 -0.09202,-0.36968 0.475926,-0.85463 1.446935,-2.54294 0.983215,-1.69179 1.459141,-2.54641 0.506491,-0.90951 1.460221,-2.75126 0.958097,-1.84958 1.464587,-2.7591 0.09606,-0.17249 0.331277,-0.0415 0.235219,0.13099 0.684716,0.41212 0.457337,0.2855 0.684715,0.41212 0.25874,0.14409 0.781479,0.40438 0.527104,0.25245 0.785845,0.39654 0.117609,0.0655 0.02681,0.21009 l -0.0646,0.0976 q -0.914951,1.42164 -2.678655,4.31205 l -1.160543,2.06556 q -0.558886,1.00359 -0.808657,1.47056 -0.04456,0.0985 -0.08911,0.1969 -0.04456,0.0985 0.05212,0.18311 0.0078,0.004 0.203856,0.11352 0.705655,0.39297 2.148421,1.10397 1.454972,0.70753 2.160627,1.10049 0.211697,0.11789 0.111272,0.29823 -0.746637,1.34074 -1.484073,2.20382 -0.152727,0.18202 -0.300008,0.15137 -0.04794,-0.006 -0.330198,-0.16334 z"
         id="path1648"
         style="stroke:#ff00ff" />
      <path
         inkscape:connector-curvature="0"
         d="m 98.276908,459.81566 q -0.708951,-0.30506 -1.83238,-0.82755 -1.469661,-0.67147 -1.828832,-0.83579 l -2.45065,-1.09359 q -0.37451,-0.15138 -1.049237,-0.49056 -0.221328,-0.14409 -0.129101,-0.35842 0.386645,-0.89856 1.181118,-2.67678 0.806264,-1.78292 1.192909,-2.68147 0.411476,-0.95626 1.173174,-2.88536 0.765245,-1.93735 1.17672,-2.89361 0.07804,-0.18136 0.325347,-0.0749 0.247308,0.10641 0.72304,0.34043 0.483974,0.23756 0.723039,0.34043 0.272039,0.11706 0.818515,0.3229 0.550024,0.19759 0.822063,0.31465 0.123654,0.0532 0.04801,0.20629 l -0.05436,0.10362 q -0.765797,1.50723 -2.226746,4.56186 l -0.944704,2.17277 q -0.454042,1.05518 -0.655083,1.5451 -0.03432,0.10247 -0.06865,0.20494 -0.03432,0.10247 0.07045,0.17686 0.0082,0.004 0.214334,0.0922 0.741925,0.31925 2.249455,0.88 1.519322,0.55606 2.261241,0.87531 0.22258,0.0958 0.14099,0.28538 -0.606564,1.40966 -1.252507,2.34318 -0.133445,0.1966 -0.283079,0.18106 -0.04831,-0.001 -0.345082,-0.12894 z"
         id="path1650"
         style="stroke:#ff00ff" />
      <path
         inkscape:connector-curvature="0"
         d="m 112.11327,461.32194 q -0.11535,0.36826 -0.56943,1.30753 -0.48946,1.02223 -0.67374,1.19021 -0.15373,0.13053 -0.33358,0.0742 -0.0771,-0.0241 -0.24888,-0.10617 -0.59835,-0.28146 -3.62148,-1.22838 -0.65944,-0.20655 -1.9585,-0.62285 -1.29906,-0.4163 -1.94994,-0.62017 -0.28261,-0.0885 -0.20482,-0.33688 0.30044,-0.95918 1.00408,-2.84535 0.7149,-1.89205 1.01533,-2.85124 0.30581,-0.9763 1.03729,-3.67193 0.18891,-0.69318 0.54691,-2.07633 l 0.029,-0.12258 q 0.0446,-0.20234 0.2758,-0.12991 0.63374,0.1985 1.8905,0.62976 1.26533,0.43395 1.89907,0.63245 0.62518,0.19583 1.89483,0.55589 1.26966,0.36007 1.89484,0.55589 0.44533,0.13949 0.40923,0.49495 -0.0189,0.21039 -0.24709,1.23922 -0.21696,1.02294 -0.28402,1.23704 -0.0563,0.17985 -0.22762,0.1262 -0.0514,-0.0161 -0.17716,-0.0649 -2.21904,-0.90195 -4.03463,-1.47063 -0.4539,-0.14218 -0.62373,0.0397 -0.075,0.0894 -0.24937,0.64602 -0.18241,0.58236 -0.0701,0.82442 0.0946,0.20832 0.5057,0.33708 0.0856,0.0268 0.33668,0.096 0.25372,0.0607 0.41644,0.11163 1.07908,0.338 2.20263,0.62409 0.0969,0.0209 0.48443,0.10472 0.30191,0.0569 0.4732,0.11059 0.20554,0.0644 0.14384,0.26136 0.0563,-0.17985 -0.56458,1.26202 -0.28311,0.66367 -0.49771,1.3488 -0.0537,0.17128 -0.30201,0.0935 0,0 -0.74394,-0.32707 -0.47206,-0.20428 -2.21057,-0.74883 l -0.9078,-0.28434 q -0.35113,-0.10998 -0.46473,0.0425 -0.022,0.0401 -0.17487,0.5283 -0.20387,0.65087 -0.17725,0.8661 0.0437,0.37104 0.9755,0.72875 -0.0171,-0.005 1.25036,0.39164 0.45389,0.14217 1.3687,0.34407 0.92606,0.19602 1.3714,0.33551 0.18841,0.059 0.0918,0.36732 z"
         id="path1652"
         style="stroke:#ff00ff" />
      <path
         inkscape:connector-curvature="0"
         d="m 129.07362,455.11488 q -0.18999,1.00528 -0.65983,3.008 -0.45935,1.99557 -0.65101,3.00968 l -1.09829,5.81124 q -0.045,0.2381 -0.30073,0.18977 -0.21163,-0.04 -0.64706,-0.10403 -0.42661,-0.0624 -0.63825,-0.10236 -0.22928,-0.0433 -0.68116,-0.16527 -0.45189,-0.12193 -0.68116,-0.16526 -0.15873,-0.03 -0.32419,-0.36267 -0.47326,-0.97537 -2.14049,-4.33184 -0.45346,-0.9351 -1.39519,-2.7662 -0.0253,-0.0596 -0.11227,-0.13082 -0.0822,0.0484 -0.10721,0.18067 -0.19333,1.02292 -0.52707,3.07876 -0.32493,2.05751 -0.51825,3.08043 -0.0583,0.30864 -0.29643,0.26365 l -3.05112,-0.57665 q -0.25573,-0.0483 -0.20407,-0.3217 0.18,-0.95237 0.6315,-2.85809 0.46032,-1.90406 0.64198,-2.86525 0.19166,-1.0141 0.48513,-3.05015 0.30228,-2.03439 0.49228,-3.03968 0.0367,-0.194 0.38057,-0.129 0.51146,0.0967 1.27435,0.16778 0.1797,0.0157 0.71831,0.017 0.45592,0.004 0.71165,0.0523 0.10582,0.02 0.26961,0.36148 l 2.43758,5.12779 q 0.32592,0.69179 0.99491,2.03295 0.16879,0.31503 0.32752,0.34503 0.11464,0.0217 0.24464,-0.66616 0.17499,-0.92592 0.42082,-2.80658 0.25466,-1.87899 0.43132,-2.81372 0.0617,-0.32628 0.24684,-0.29128 0.5291,0.1 1.60445,0.25756 1.07534,0.15757 1.60444,0.25756 0.16755,0.0317 0.11588,0.30504 z"
         id="path1654"
         style="stroke:#ff00ff" />
      <path
         inkscape:connector-curvature="0"
         d="m 134.89176,456.94111 q -0.14084,1.48307 -0.95848,3.1633 -0.0778,0.15488 -0.22245,0.15917 -0.21782,0.0154 -0.58412,-0.0194 -0.25909,-0.0246 -0.51479,-0.0849 -0.37908,-0.0901 -0.53012,-1.72709 -0.1199,-1.3005 -0.0503,-2.03311 l 0.10436,-1.0989 q 0.0195,-0.20549 0.13012,-0.23104 0.15697,-0.0392 1.28268,0.0677 1.21505,0.11538 1.33504,0.18087 0.15403,0.0867 0.008,1.62343 z"
         id="path1656"
         style="stroke:#ff00ff" />
      <path
         inkscape:connector-curvature="0"
         d="m 144.2177,464.20761 q -0.0488,1.82115 -1.61766,3.08089 -1.37643,1.11229 -3.31364,1.37463 -0.072,0.007 -0.11686,0.006 -0.20634,-0.006 -0.88143,-1.28046 -0.67486,-1.28391 -0.66741,-1.56202 0.003,-0.0987 0.13793,-0.12199 1.30874,-0.26122 1.73591,-0.45627 0.9455,-0.44152 0.97,-1.35658 0.0156,-0.58313 -0.57521,-1.31716 -1.02594,-1.24842 -1.11205,-1.38539 -0.59403,-0.94958 -0.56376,-2.07994 0.044,-1.64173 1.58915,-2.68665 1.26204,-0.86397 3.07245,-1.08482 0.0989,-0.006 0.15275,-0.005 0.13457,0.004 0.20955,0.22107 0.21571,0.66114 1.0221,2.39746 0.0255,0.0545 0.0245,0.0904 -0.004,0.15251 -0.16557,0.14818 -0.0718,-0.002 -0.2415,-0.0334 -0.16973,-0.0315 -0.25944,-0.0339 -0.64593,-0.0173 -1.1383,0.26578 -0.59225,0.32529 -0.60858,0.93533 -0.0147,0.54724 0.60989,1.36297 1.10091,1.4659 1.15281,1.53911 0.61054,1.00388 0.58436,1.98174 z"
         id="path1658"
         style="stroke:#ff00ff" />
      <path
         inkscape:connector-curvature="0"
         d="m 164.64123,460.35792 q 0.31522,2.61958 -1.13719,4.74681 -1.28105,1.89871 -3.96118,2.31161 -0.51465,0.08 -2.84019,0.35986 -0.43659,0.0525 -1.32191,0.13196 -0.87641,0.0783 -1.313,0.13088 -0.25839,0.0311 -0.28306,-0.17384 -0.11794,-0.98011 -0.28254,-2.94891 -0.15677,-1.97879 -0.27471,-2.9589 -0.12331,-1.02466 -0.44903,-3.05543 -0.31789,-2.04075 -0.44012,-3.0565 -0.0225,-0.18711 0.23159,-0.25385 0.62404,-0.1474 2.06747,-0.3211 2.74432,-0.33024 3.56479,-0.34762 2.13743,-0.0403 3.43431,0.67142 1.21918,0.66682 2.04331,2.03198 0.78776,1.2882 0.96146,2.73163 z m -3.41258,0.41066 q -0.1812,-1.50581 -1.19585,-2.3509 -1.02784,-0.87966 -2.52474,-0.69953 -1.37216,0.16512 -1.3282,0.53044 0.0633,0.5257 0.17303,1.58814 0.1087,1.05354 0.17196,1.57924 0.0622,0.51678 0.20546,1.55712 0.1422,1.03143 0.20546,1.55713 0.0461,0.38313 1.47172,0.21158 1.54145,-0.18549 2.30025,-1.3163 0.71177,-1.07092 0.52091,-2.65692 z"
         id="path1660"
         style="stroke:#ff00ff" />
      <path
         inkscape:connector-curvature="0"
         d="m 177.66093,461.02834 q 0.0894,0.37539 0.18019,1.41471 0.10283,1.12869 0.0305,1.36733 -0.0652,0.19083 -0.24858,0.23451 -0.0786,0.0187 -0.26814,0.0362 -0.6581,0.0645 -3.73981,0.79868 -0.67222,0.16015 -2.00127,0.46754 -1.32905,0.3074 -1.99254,0.46546 -0.28809,0.0686 -0.3484,-0.18454 -0.23294,-0.97777 -0.59405,-2.95826 -0.35446,-1.99131 -0.58739,-2.96908 -0.2371,-0.99522 -0.98867,-3.68532 -0.19257,-0.69217 -0.59309,-2.06361 l -0.0379,-0.12014 q -0.0653,-0.19664 0.17042,-0.25279 0.64602,-0.1539 1.94639,-0.42679 1.3091,-0.27497 1.95513,-0.42887 0.63729,-0.15182 1.9123,-0.49247 1.275,-0.34065 1.91229,-0.49247 0.45397,-0.10815 0.60492,0.21569 0.0915,0.19039 0.42212,1.19101 0.33728,0.98981 0.38928,1.20806 0.0437,0.18333 -0.13093,0.22493 -0.0524,0.0125 -0.18541,0.0349 -2.36795,0.36115 -4.21873,0.80207 -0.46269,0.11022 -0.51546,0.35343 -0.0187,0.11516 0.11649,0.68262 0.14143,0.59364 0.36178,0.74411 0.18793,0.13052 0.60697,0.0307 0.0873,-0.0208 0.3384,-0.0899 0.24901,-0.0778 0.41488,-0.11728 1.09999,-0.26206 2.21161,-0.59146 0.094,-0.0316 0.46976,-0.15804 0.2885,-0.10563 0.4631,-0.14722 0.20952,-0.0499 0.25736,0.15087 -0.0437,-0.18333 0.16106,1.37314 0.0965,0.71504 0.26293,1.41345 0.0416,0.1746 -0.21158,0.23492 0,0 -0.8065,0.0999 -0.5101,0.0662 -2.2823,0.48836 l -0.92539,0.22045 q -0.35793,0.0853 -0.37745,0.27443 0.002,0.0457 0.12022,0.54335 0.15806,0.66348 0.29111,0.83475 0.22745,0.29638 1.21104,0.12664 -0.0175,0.004 1.2746,-0.30365 0.46269,-0.11023 1.3519,-0.40509 0.89586,-0.30568 1.34982,-0.41383 0.19207,-0.0457 0.26694,0.26853 z"
         id="path1662"
         style="stroke:#ff00ff" />
      <path
         inkscape:connector-curvature="0"
         d="m 186.44191,456.72731 q 0.58447,1.7255 -0.45156,3.45034 -0.90646,1.51987 -2.63319,2.43639 -0.0651,0.0315 -0.10762,0.0459 -0.19551,0.0662 -1.27009,-0.89632 -1.07746,-0.97105 -1.16672,-1.23455 -0.0317,-0.0935 0.0872,-0.16219 1.13748,-0.69798 1.47076,-1.0288 0.73429,-0.74143 0.44061,-1.60843 -0.18714,-0.5525 -0.99548,-1.03672 -1.39456,-0.81626 -1.52275,-0.91497 -0.88593,-0.68534 -1.24871,-1.75634 -0.52689,-1.5555 0.56124,-3.07058 0.88508,-1.24732 2.50721,-2.08104 0.0906,-0.0402 0.14162,-0.0574 0.1275,-0.0432 0.2731,0.1349 0.43118,0.54564 1.7886,1.89562 0.0428,0.0424 0.0543,0.0764 0.0489,0.1445 -0.10405,0.19633 -0.068,0.023 -0.23814,0.0522 -0.17014,0.0292 -0.25514,0.058 -0.612,0.2073 -0.97599,0.64328 -0.44309,0.51014 -0.24731,1.08814 0.17563,0.5185 1.04388,1.0677 1.54017,0.99435 1.6142,1.04508 0.92021,0.73058 1.23404,1.65708 z"
         id="path1664"
         style="stroke:#ff00ff" />
      <path
         inkscape:connector-curvature="0"
         d="m 192.38967,451.59769 q 0.41251,0.97533 1.29062,2.91328 0.87812,1.93795 1.29063,2.91328 0.0699,0.16531 0.013,0.2381 -0.013,0.0153 -0.20092,0.12395 -0.5093,0.29336 -1.41024,0.67441 -1.20676,0.51039 -1.56535,0.5841 -0.26067,0.0518 -0.34807,-0.15485 0.0559,0.13225 -0.54088,-1.48619 -1.26705,-3.41046 -1.71102,-4.46018 -0.37406,-0.88441 -1.18003,-2.62875 -0.80597,-1.74435 -1.18003,-2.62876 -0.0769,-0.18184 0.1132,-0.26225 0.25623,-0.10837 0.77918,-0.30032 0.53121,-0.19544 0.78744,-0.30381 0.25623,-0.10837 0.74168,-0.34292 0.4937,-0.23805 0.74994,-0.34642 0.2397,-0.10138 0.3166,0.0805 0.37406,0.88441 1.02299,2.69518 0.65719,1.80728 1.03125,2.69169 z"
         id="path1666"
         style="stroke:#ff00ff" />
      <path
         inkscape:connector-curvature="0"
         d="m 209.36244,450.05928 q 0.13104,0.20461 -0.10578,0.33266 -0.14999,0.0811 -0.96228,0.29588 -0.80439,0.2105 -1.00431,0.23698 -1.29987,1.53947 -2.81556,2.35904 -2.43932,1.319 -4.8817,0.53797 -2.4138,-0.76588 -3.73706,-3.21309 -1.35315,-2.50247 -0.74538,-4.9634 0.62525,-2.5418 3.09614,-3.87787 1.19992,-0.64882 2.50532,-0.76295 1.41786,-0.11372 2.56824,0.44772 0.23664,0.11689 0.27933,0.19584 0.1366,0.25261 -0.0958,1.52094 -0.22877,1.25616 -0.43402,1.36715 -0.0474,0.0256 -0.53815,-0.12731 -0.59598,-0.17766 -1.11384,-0.1731 -0.77497,7.5e-4 -1.50124,0.39346 -1.18413,0.64029 -1.40074,1.90008 -0.20766,1.16313 0.4497,2.37884 0.69579,1.28676 1.77231,1.67388 1.11302,0.39799 2.38399,-0.28925 0.80521,-0.4354 1.58218,-1.37585 -0.16455,-0.2477 -0.85922,-1.24939 -0.54656,-0.76551 -0.81975,-1.27074 -0.0811,-0.14999 0.004,-0.23706 0.0309,-0.0371 0.11777,-0.0841 0.22893,-0.12379 0.71241,-0.32401 0.4871,-0.21237 0.72393,-0.34043 0.25261,-0.1366 0.74077,-0.44136 0.48388,-0.31266 0.7365,-0.44926 0.19735,-0.10671 0.33822,0.15379 0.20489,0.37893 0.57158,1.17028 0.37458,0.78708 0.57948,1.166 0.55064,1.01836 1.79767,2.96607 z"
         id="path1668"
         style="stroke:#ff00ff" />
      <path
         inkscape:connector-curvature="0"
         d="m 215.36686,431.21839 q 0.59766,0.83035 1.72538,2.55078 1.12977,1.7079 1.73267,2.54554 l 3.45491,4.80006 q 0.14155,0.19666 -0.0697,0.3487 -0.17482,0.12582 -0.52124,0.39728 -0.33914,0.26622 -0.51395,0.39204 -0.18938,0.13631 -0.58911,0.37979 -0.39973,0.24348 -0.58911,0.37979 -0.13111,0.0944 -0.48622,-0.0149 -1.03297,-0.32907 -4.6143,-1.43344 -0.99015,-0.31566 -2.96609,-0.89482 -0.0606,-0.0227 -0.17217,-0.009 -0.0216,0.0929 0.0571,0.20219 0.60815,0.84493 1.86814,2.50332 1.26728,1.65316 1.87543,2.49808 0.18349,0.25494 -0.0132,0.39649 l -2.52021,1.81395 q -0.21124,0.15204 -0.37376,-0.0738 -0.5662,-0.78666 -1.63626,-2.42696 -1.06277,-1.64555 -1.63422,-2.43949 -0.60291,-0.83764 -1.87631,-2.45321 -1.26612,-1.62082 -1.86378,-2.45118 -0.11534,-0.16024 0.16873,-0.36471 0.42246,-0.30407 0.99965,-0.80797 0.13519,-0.11942 0.50727,-0.50886 0.31701,-0.32768 0.52824,-0.47972 0.0874,-0.0629 0.44775,0.0537 l 5.39587,1.76654 q 0.72593,0.24046 2.15887,0.6797 0.34462,0.0947 0.47573,3.7e-4 0.0947,-0.0682 -0.31424,-0.6363 -0.55048,-0.7648 -1.74408,-2.23878 -1.18632,-1.47922 -1.74204,-2.25131 -0.19398,-0.2695 -0.041,-0.3796 0.43704,-0.31456 1.29217,-0.98534 0.85513,-0.67077 1.29216,-0.98533 0.13839,-0.0996 0.30092,0.12619 z"
         id="path1670"
         style="stroke:#ff00ff" />
      <path
         inkscape:connector-curvature="0"
         d="m 227.64138,431.22399 q 1.21397,1.35839 0.93682,3.35128 -0.23828,1.75355 -1.46767,3.27348 -0.0476,0.0545 -0.081,0.0844 -0.15391,0.13754 -1.51977,-0.32685 -1.37183,-0.47109 -1.55722,-0.67853 -0.0658,-0.0736 0.0166,-0.18338 0.77294,-1.08795 0.9499,-1.52292 0.38497,-0.9699 -0.22501,-1.65244 -0.38871,-0.43496 -1.32215,-0.56364 -1.60291,-0.2044 -1.75953,-0.24497 -1.08365,-0.2833 -1.83715,-1.12644 -1.09436,-1.22457 -0.68708,-3.0449 0.32543,-1.49442 1.49104,-2.89717 0.0676,-0.0725 0.10778,-0.10836 0.10037,-0.0897 0.30412,0.0171 0.61053,0.333 2.38844,1.04299 0.056,0.0222 0.0799,0.049 0.10166,0.11376 -0.0188,0.2214 -0.0535,0.0478 -0.19861,0.14139 -0.14509,0.0935 -0.212,0.15335 -0.4818,0.43057 -0.6458,0.97432 -0.20771,0.64299 0.19894,1.09802 0.36479,0.40819 1.37882,0.57317 1.80665,0.31118 1.89464,0.32883 1.13292,0.31149 1.78476,1.04088 z"
         id="path1672"
         style="stroke:#ff00ff" />
    </g>
  </g>
</svg>
