<?xml version="1.0" encoding="UTF-8" standalone="no"?>
<svg
   xmlns:dc="http://purl.org/dc/elements/1.1/"
   xmlns:cc="http://creativecommons.org/ns#"
   xmlns:rdf="http://www.w3.org/1999/02/22-rdf-syntax-ns#"
   xmlns:svg="http://www.w3.org/2000/svg"
   xmlns="http://www.w3.org/2000/svg"
   xmlns:sodipodi="http://sodipodi.sourceforge.net/DTD/sodipodi-0.dtd"
   xmlns:inkscape="http://www.inkscape.org/namespaces/inkscape"
   aria-hidden="true"
   data-prefix="far"
   data-icon="paper-plane"
   class="svg-inline--fa fa-paper-plane fa-w-16"
   role="img"
   viewBox="0 0 512 512"
   version="1.1"
   id="svg4"
   sodipodi:docname="paper-plane-regular.svg"
   inkscape:version="0.92.3 (2405546, 2018-03-11)">
  <metadata
     id="metadata10">
    <rdf:RDF>
      <cc:Work
         rdf:about="">
        <dc:format>image/svg+xml</dc:format>
        <dc:type
           rdf:resource="http://purl.org/dc/dcmitype/StillImage" />
        <dc:title></dc:title>
      </cc:Work>
    </rdf:RDF>
  </metadata>
  <defs
     id="defs8" />
  <sodipodi:namedview
     pagecolor="#ffffff"
     bordercolor="#666666"
     borderopacity="1"
     objecttolerance="10"
     gridtolerance="10"
     guidetolerance="10"
     inkscape:pageopacity="0"
     inkscape:pageshadow="2"
     inkscape:window-width="1600"
     inkscape:window-height="825"
     id="namedview6"
     showgrid="false"
     showborder="false"
     inkscape:zoom="1"
     inkscape:cx="256"
     inkscape:cy="-675.43937"
     inkscape:window-x="-9"
     inkscape:window-y="-9"
     inkscape:window-maximized="1"
     inkscape:current-layer="svg4" />
  <path
     d="m 136,-54.5 -416,239.9 c -34.4,19.9 -31.1,70.8 5.7,85.9 L -160,318.6 V 403 c 0,46.4 59.2,65.5 86.6,28.6 l 43.8,-59.1 111.9,46.2 c 5.9,2.4 12.1,3.6 18.3,3.6 8.2,0 16.3,-2.1 23.6,-6.2 12.8,-7.2 21.6,-20 23.9,-34.5 L 207.5,-5.6 C 213.6,-45.7 170.6,-74.4 136,-54.5 Z M -112,403 v -64.6 l 36.6,15.1 z M 100.6,374.3 -53.2,310.8 87,108.5 C 97.7,93 77.5,75 63.3,87.3 L -148.2,271.6 -256,227 160,-13 Z"
     id="path2"
     inkscape:connector-curvature="0"
     style="fill:currentColor" />
  <path
     id="path817"
     d="m 370,922.5 -416,239.9 c -34.4,19.9 -31.1,70.8 5.7,85.9 L 74,1295.6 v 84.4 c 0,46.4 59.2,65.5 86.6,28.6 l 43.8,-59.1 111.9,46.2 c 5.9,2.4 12.1,3.6 18.3,3.6 8.2,0 16.3,-2.1 23.6,-6.2 12.8,-7.2 21.6,-20 23.9,-34.5 L 441.5,971.4 C 447.6,931.3 404.6,902.6 370,922.5 Z M 122,1380 v -64.6 l 36.6,15.1 z M 334.6,1351.3 180.8,1287.8 321,1085.5 c 10.7,-15.5 -9.5,-33.5 -23.7,-21.2 L 88.8,1240.6 -22,1204 394,964 Z"
     inkscape:connector-curvature="0"
     style="opacity:0.469;fill:#008000"
     sodipodi:nodetypes="ccccscccscccccccccccccccc" />
</svg>
